<svg xmlns="http://www.w3.org/2000/svg" viewBox="0 0 800 480" role="img"><defs><linearGradient id="bg" x2="0" y2="1"><stop stop-color="#d6f3ea"/><stop offset="1" stop-color="#fff1c6"/></linearGradient></defs><rect width="800" height="480" fill="url(#bg)"/><path d="M95 91 310 64 508 95 700 70v300l-192 31-198-37-215 29Z" fill="#fff9e9" stroke="#27667c" stroke-width="12" stroke-linejoin="round"/><path d="M310 64v300M508 95v306" stroke="#c6ded5" stroke-width="6"/><path d="M155 200q80-70 160 5t165 13q75-55 150 12" fill="none" stroke="#77bca7" stroke-width="20" stroke-linecap="round"/><rect x="248" y="299" width="310" height="35" rx="10" fill="#27667c"/><path d="M280 299v35m51-35v35m51-35v35m51-35v35m51-35v35m51-35v35" stroke="#fff9e9" stroke-width="5"/></svg>